<mxfile host="app.diagrams.net" modified="2023-09-19T09:57:36.174Z" agent="Mozilla/5.0 (Windows NT 10.0; Win64; x64) AppleWebKit/537.36 (KHTML, like Gecko) Chrome/117.0.0.0 Safari/537.36" version="21.7.5" etag="3NXkRbaai0ed--_MVR83" type="github">
  <diagram name="Страница — 1" id="EunSvjTo_XKafHwg6r-F">
    <mxGraphModel>
      <root>
        <mxCell id="0" />
        <mxCell id="1" parent="0" />
      </root>
    </mxGraphModel>
  </diagram>
</mxfile>
